<svg xmlns="http://www.w3.org/2000/svg" width="59.311" height="48.005" viewBox="0 0 59.311 48.005"><defs><style>.a{fill:#231f20;}.b{fill:#f9b82d;}</style></defs><path class="a" d="M2073.577,634.362a3.283,3.283,0,0,0-3.286,3.284l0,2.613a.618.618,0,0,0,.585.612h.66v-3.225a2.042,2.042,0,0,1,3.942-.748h1.3a3.278,3.278,0,0,0-3.2-2.535" transform="translate(-2048.395 -595.904)"/><path class="a" d="M2027.5,638.1h.185a3.007,3.007,0,0,0,.036-.453,3.286,3.286,0,1,0-.143.961h-1.339a2.041,2.041,0,0,1-3.8-.507h5.057m-3.066-2.5a2.047,2.047,0,0,1,1.9,1.3h-3.807a2.045,2.045,0,0,1,1.9-1.3" transform="translate(-2013.905 -595.904)"/><path class="a" d="M2156.047,638.1h.189a3.346,3.346,0,0,0,.034-.453,3.292,3.292,0,1,0-.145.961h-1.338a2.043,2.043,0,0,1-3.8-.507h5.057m-3.063-2.5a2.045,2.045,0,0,1,1.9,1.3h-3.807a2.044,2.044,0,0,1,1.9-1.3" transform="translate(-2104.127 -595.904)"/><path class="a" d="M2131.911,637.646a3.284,3.284,0,1,0-1.234,2.569v.407a2.045,2.045,0,0,1-3.946.752h-1.3a3.281,3.281,0,0,0,6.475-.752v-2.928c0-.016,0-.032,0-.048m-3.284,2.047a2.045,2.045,0,1,1,2.042-2.047,2.045,2.045,0,0,1-2.042,2.047" transform="translate(-2087.033 -595.904)"/><path class="a" d="M2095.265,628.185a.622.622,0,1,1-.62-.622.622.622,0,0,1,.62.622" transform="translate(-2065.051 -591.132)"/><path class="a" d="M2107.648,637.646a3.285,3.285,0,0,0-6.57,0v2.6a.623.623,0,0,0,.621.622h.614l.007-3.225a2.044,2.044,0,0,1,4.088,0v2.6a.624.624,0,0,0,.624.622h.621l0-3.225" transform="translate(-2070.003 -595.904)"/><path class="a" d="M2177.316,634.362a3.285,3.285,0,0,0-3.286,3.284v2.628a.619.619,0,0,0,.617.6h.624v-3.225a2.044,2.044,0,0,1,3.946-.748h1.3a3.285,3.285,0,0,0-3.2-2.535" transform="translate(-2121.204 -595.904)"/><path class="a" d="M2000.147,628.711a3.273,3.273,0,0,0-2.088.747v-2.525h0a.622.622,0,0,0-.622-.62v0h-.57v5.635a.416.416,0,0,0,0,.05,3.286,3.286,0,1,0,3.287-3.284m0,5.331a2.045,2.045,0,1,1,2.044-2.047,2.045,2.045,0,0,1-2.044,2.047" transform="translate(-1996.861 -590.252)"/><path class="a" d="M2094.021,634.508v5.846a.626.626,0,0,0,.624.619v0h.62v-6.469h-1.244" transform="translate(-2065.051 -596.006)"/><path class="a" d="M2048.761,628.711a3.265,3.265,0,0,0-2.039.711v-2.494a.623.623,0,0,0-.624-.617h-.625l0,8.3a.622.622,0,0,0,.623.621h.626v-3.337a2.042,2.042,0,0,1,4.082.1v2.61a.62.62,0,0,0,.586.615h.652l0-3.225a3.283,3.283,0,0,0-3.284-3.284" transform="translate(-2030.978 -590.252)"/><path class="b" d="M2042.21,507.993l-18.753,25.58-.152.209-.114.228-.115.227-.093.245-.059.227-.054.247-.04.266v.512l.04.248.036.246.078.245.093.228.1.248.133.207.133.208.151.209.17.19.19.17.21.153.207.151.228.114.227.113.228.077.245.077.246.056.267.018.245.02h37.377l.264-.02.248-.018.245-.056.247-.077.228-.077.246-.113.208-.114.209-.151.209-.153.19-.17.171-.19.15-.189.134-.229.133-.207.094-.229.1-.247.077-.245.036-.246.04-.248v-.512l-.04-.245-.036-.248-.077-.247-.1-.245-.094-.227-.133-.209-.134-.209-18.638-25.58-.153-.208-.172-.19-.188-.17-.189-.152-.208-.133-.228-.133-.229-.095-.228-.094-.246-.077-.246-.036-.266-.038h-.492l-.247.038-.246.036-.247.077-.247.075-.227.113-.228.115-.209.151-.19.152-.19.17-.171.19Z" transform="translate(-2015.086 -506.296)"/><path class="a" d="M2066.049,533.757l-.1-.331-.192-.481-.312-.5-18.791-25.789-.2-.221-.235-.213-.19-.152-.483-.3-.5-.212-.278-.088-.574-.089-.547,0-.551.08-.55.163-.515.252-.485.362-.189.171-.216.238-.158.2-18.755,25.582-.152.208-.262.51-.11.283-.135.556-.039.266,0,.568.081.55.089.305.2.5.313.505.152.21.2.219.22.2.447.329.512.262.53.175.276.064.566.046,37.423,0,.523-.038.306-.066.511-.163.285-.127.235-.129.457-.331.221-.192.218-.239.15-.19.29-.47.232-.565.077-.247.087-.549.006-.573Zm-.7,1.03-.067.438-.06.191-.173.436-.241.4-.275.323-.16.144-.38.276-.176.1-.213.1-.433.14-.2.046-.469.035h-37.346l-.471-.035-.2-.046-.426-.138-.4-.2-.376-.273-.159-.143-.143-.16-.127-.173-.245-.384-.172-.429-.062-.2-.067-.438v-.453l.03-.21.106-.438.077-.208.207-.411,18.876-25.749.134-.17.158-.175.157-.143.359-.275.4-.2.435-.134.436-.066h.435l.452.066.2.063.413.171.383.235.329.281.146.16,18.765,25.752.248.389.164.408.068.218.067.436Z" transform="translate(-2014.172 -505.379)"/><path class="a" d="M2070.527,542.756a16.207,16.207,0,0,0-3.4,1.739l-.007,0a.117.117,0,0,1-.02.013l-.005.006c-.076.058-.11.142-.076.2s.127.06.215.015h0a11.115,11.115,0,0,1,2.813-1.324,4.159,4.159,0,0,1,3.212.148c2.509,1.443,1.225,5.767-.768,8.639a17.728,17.728,0,0,1-4.668,4.635,8.1,8.1,0,0,1-4.447,1.57c-3.344.012-2.98-3.714-2.98-3.714h0a.034.034,0,0,0,0-.012c.01-.109-.024-.2-.078-.207s-.1.078-.115.187a.115.115,0,0,1,0,.016h0a4.245,4.245,0,0,0,1.386,3.987,3.633,3.633,0,0,0,2.126.739,8.362,8.362,0,0,0,2.543-.3,12.193,12.193,0,0,0,3.448-1.677,20.609,20.609,0,0,0,4.04-3.585c1.581-1.836,3.126-4.57,3.282-6.812.393-5.66-4.609-4.894-6.5-4.264" transform="translate(-2041.282 -531.309)"/><path class="a" d="M2064.452,561.952a6.212,6.212,0,0,0,1.3-.371,11.918,11.918,0,0,0,3.516-2.327,4.735,4.735,0,0,0,1.733-3.106c-.034-1.3-1.466-1.307-2.032-1.258a.439.439,0,0,0-.325.172c-.65.949-4.328,6.306-4.48,6.52-.182.254-.079.432.283.371" transform="translate(-2044.038 -540.117)"/></svg>